<svg width="800" height="400" viewBox="0 0 800 400" xmlns="http://www.w3.org/2000/svg"><mask id="satori_om-id"><rect x="0" y="0" width="800" height="400" fill="#fff"/></mask><rect x="0" y="0" width="800" height="400" fill="#fff"/><mask id="satori_om-id-0"><rect x="354" y="137" width="92" height="38" fill="#fff"/></mask><path fill="black" d="M370.6 143.7L375.5 143.7L375.5 167.0L371.2 167.0L361.1 152.3L360.9 152.3L360.9 167.0L356.0 167.0L356.0 143.7L360.3 143.7L370.4 158.3L370.6 158.3L370.6 143.7ZM400.9 155.3L400.9 155.3Q400.9 159.1 399.5 161.8Q398.1 164.5 395.6 165.9Q393.1 167.3 390.0 167.3L390.0 167.3Q386.9 167.3 384.5 165.9Q382 164.5 380.6 161.8Q379.1 159.1 379.1 155.3L379.1 155.3Q379.1 151.5 380.6 148.8Q382 146.2 384.5 144.8Q386.9 143.4 390.0 143.4L390.0 143.4Q393.1 143.4 395.6 144.8Q398.1 146.2 399.5 148.8Q400.9 151.5 400.9 155.3ZM395.9 155.3L395.9 155.3Q395.9 152.8 395.2 151.2Q394.5 149.5 393.1 148.6Q391.8 147.7 390.0 147.7L390.0 147.7Q388.3 147.7 386.9 148.6Q385.6 149.5 384.9 151.2Q384.1 152.8 384.1 155.3L384.1 155.3Q384.1 157.8 384.9 159.5Q385.6 161.2 386.9 162.0Q388.3 162.9 390.0 162.9L390.0 162.9Q391.8 162.9 393.1 162.0Q394.5 161.2 395.2 159.5Q395.9 157.8 395.9 155.3ZM426.0 155.3L426.0 155.3Q426.0 159.1 424.5 161.8Q423.1 164.5 420.6 165.9Q418.1 167.3 415.1 167.3L415.1 167.3Q412.0 167.3 409.5 165.9Q407.0 164.5 405.6 161.8Q404.2 159.1 404.2 155.3L404.2 155.3Q404.2 151.5 405.6 148.8Q407.0 146.2 409.5 144.8Q412.0 143.4 415.1 143.4L415.1 143.4Q418.1 143.4 420.6 144.8Q423.1 146.2 424.5 148.8Q426.0 151.5 426.0 155.3ZM421.0 155.3L421.0 155.3Q421.0 152.8 420.2 151.2Q419.5 149.5 418.2 148.6Q416.8 147.7 415.1 147.7L415.1 147.7Q413.3 147.7 411.9 148.6Q410.6 149.5 409.9 151.2Q409.1 152.8 409.1 155.3L409.1 155.3Q409.1 157.8 409.9 159.5Q410.6 161.2 411.9 162.0Q413.3 162.9 415.1 162.9L415.1 162.9Q416.8 162.9 418.2 162.0Q419.5 161.2 420.2 159.5Q421.0 157.8 421.0 155.3ZM434.5 167.0L429.6 167.0L429.6 143.7L445.0 143.7L445.0 147.7L434.5 147.7L434.5 153.3L444.0 153.3L444.0 157.3L434.5 157.3L434.5 167.0Z "/><mask id="satori_om-id-1"><rect x="302" y="207" width="196" height="24" fill="#fff"/></mask><path fill="gray" d="M307.2 213.7L302.7 213.7L302.7 211.2L314.7 211.2L314.7 213.7L310.2 213.7L310.2 225.7L307.2 225.7L307.2 213.7ZM319.6 219.4L319.6 219.4L319.6 225.7L316.6 225.7L316.6 211.2L319.5 211.2L319.5 216.7L319.6 216.7Q320.0 215.8 320.8 215.2Q321.7 214.7 322.9 214.7L322.9 214.7Q324.0 214.7 324.9 215.2Q325.7 215.7 326.2 216.6Q326.7 217.5 326.7 218.8L326.7 218.8L326.7 225.7L323.6 225.7L323.6 219.3Q323.7 218.3 323.1 217.7Q322.6 217.2 321.7 217.2L321.7 217.2Q321.1 217.2 320.6 217.4Q320.1 217.7 319.9 218.2Q319.6 218.7 319.6 219.4ZM334.0 225.9L334.0 225.9Q332.3 225.9 331.1 225.2Q329.9 224.6 329.3 223.3Q328.6 222.0 328.6 220.3L328.6 220.3Q328.6 218.6 329.3 217.4Q329.9 216.1 331.1 215.4Q332.3 214.7 333.9 214.7L333.9 214.7Q335.0 214.7 335.9 215.0Q336.9 215.4 337.6 216.0Q338.3 216.7 338.6 217.8Q339.0 218.8 339.0 220.2L339.0 220.2L339.0 221.0L329.8 221.0L329.8 219.2L336.2 219.2Q336.2 218.5 335.9 218.0Q335.6 217.5 335.1 217.2Q334.6 216.9 334.0 216.9L334.0 216.9Q333.3 216.9 332.7 217.2Q332.2 217.6 331.9 218.1Q331.6 218.6 331.6 219.3L331.6 219.3L331.6 221.0Q331.6 221.9 331.9 222.4Q332.2 223.0 332.8 223.4Q333.3 223.7 334.1 223.7L334.1 223.7Q334.6 223.7 335.0 223.5Q335.4 223.4 335.7 223.1Q336.0 222.8 336.2 222.4L336.2 222.4L339.0 222.6Q338.8 223.6 338.1 224.4Q337.4 225.1 336.4 225.5Q335.4 225.9 334.0 225.9Z M354.8 211.2L357.9 211.2L357.9 225.7L355.2 225.7L348.9 216.6L348.8 216.6L348.8 225.7L345.7 225.7L345.7 211.2L348.4 211.2L354.7 220.3L354.8 220.3L354.8 211.2ZM365.3 225.9L365.3 225.9Q363.6 225.9 362.4 225.2Q361.2 224.5 360.6 223.3Q359.9 222.0 359.9 220.3L359.9 220.3Q359.9 218.6 360.6 217.4Q361.2 216.1 362.4 215.4Q363.6 214.7 365.3 214.7L365.3 214.7Q366.9 214.7 368.1 215.4Q369.3 216.1 370.0 217.4Q370.7 218.6 370.7 220.3L370.7 220.3Q370.7 222.0 370.0 223.3Q369.3 224.5 368.1 225.2Q366.9 225.9 365.3 225.9ZM365.3 223.6L365.3 223.6Q366.0 223.6 366.6 223.2Q367.1 222.7 367.3 222.0Q367.6 221.2 367.6 220.3L367.6 220.3Q367.6 219.3 367.3 218.6Q367.1 217.8 366.6 217.4Q366.0 217.0 365.3 217.0L365.3 217.0Q364.5 217.0 364.0 217.4Q363.5 217.8 363.2 218.6Q363.0 219.3 363.0 220.3L363.0 220.3Q363.0 221.2 363.2 222.0Q363.5 222.7 364.0 223.2Q364.5 223.6 365.3 223.6ZM371.9 214.8L378.4 214.8L378.4 217.1L371.9 217.1L371.9 214.8ZM373.3 222.8L373.3 212.2L376.4 212.2L376.4 222.4Q376.4 222.8 376.5 223.0Q376.6 223.2 376.9 223.3Q377.1 223.4 377.4 223.4L377.4 223.4Q377.6 223.4 377.8 223.4Q378.0 223.4 378.2 223.3L378.2 223.3L378.6 225.6Q378.4 225.7 378.0 225.8Q377.6 225.8 377.0 225.9L377.0 225.9Q375.9 225.9 375.1 225.6Q374.3 225.2 373.8 224.5Q373.3 223.8 373.3 222.8L373.3 222.8ZM385.3 225.9L385.3 225.9Q383.6 225.9 382.4 225.2Q381.1 224.6 380.5 223.3Q379.8 222.0 379.8 220.3L379.8 220.3Q379.8 218.6 380.5 217.4Q381.1 216.1 382.3 215.4Q383.5 214.7 385.1 214.7L385.1 214.7Q386.2 214.7 387.1 215.0Q388.1 215.4 388.8 216.0Q389.5 216.7 389.9 217.8Q390.3 218.8 390.3 220.2L390.3 220.2L390.3 221.0L381.0 221.0L381.0 219.2L387.4 219.2Q387.4 218.5 387.1 218.0Q386.8 217.5 386.3 217.2Q385.8 216.9 385.2 216.9L385.2 216.9Q384.5 216.9 384.0 217.2Q383.4 217.6 383.1 218.1Q382.8 218.6 382.8 219.3L382.8 219.3L382.8 221.0Q382.8 221.9 383.1 222.4Q383.4 223.0 384.0 223.4Q384.5 223.7 385.3 223.7L385.3 223.7Q385.8 223.7 386.2 223.5Q386.6 223.4 386.9 223.1Q387.2 222.8 387.4 222.4L387.4 222.4L390.2 222.6Q390.0 223.6 389.3 224.4Q388.7 225.1 387.6 225.5Q386.6 225.9 385.3 225.9Z M396.2 214.8L402.8 214.8L402.8 217.1L396.2 217.1L396.2 214.8ZM397.7 222.8L397.7 212.2L400.7 212.2L400.7 222.4Q400.7 222.8 400.9 223.0Q401.0 223.2 401.2 223.3Q401.5 223.4 401.8 223.4L401.8 223.4Q402.0 223.4 402.2 223.4Q402.4 223.4 402.5 223.3L402.5 223.3L403.0 225.6Q402.8 225.7 402.3 225.8Q401.9 225.8 401.3 225.9L401.3 225.9Q400.3 225.9 399.4 225.6Q398.6 225.2 398.2 224.5Q397.7 223.8 397.7 222.8L397.7 222.8ZM407.9 225.9L407.9 225.9Q406.8 225.9 406.0 225.6Q405.2 225.2 404.7 224.5Q404.2 223.8 404.2 222.7L404.2 222.7Q404.2 221.8 404.6 221.1Q404.9 220.5 405.5 220.2Q406.1 219.8 406.8 219.6Q407.5 219.4 408.3 219.3L408.3 219.3Q409.3 219.2 409.9 219.1Q410.5 219.0 410.7 218.9Q411.0 218.7 411.0 218.3L411.0 218.3L411.0 218.3Q411.0 217.6 410.6 217.2Q410.1 216.9 409.4 216.9L409.4 216.9Q408.5 216.9 408.1 217.2Q407.6 217.6 407.4 218.1L407.4 218.1L404.6 217.9Q404.8 216.9 405.5 216.2Q406.1 215.5 407.1 215.1Q408.1 214.7 409.4 214.7L409.4 214.7Q410.3 214.7 411.1 214.9Q412.0 215.1 412.6 215.5Q413.3 216.0 413.6 216.7Q414.0 217.4 414.0 218.4L414.0 218.4L414.0 225.7L411.1 225.7L411.1 224.2L411.1 224.2Q410.8 224.7 410.4 225.1Q409.9 225.5 409.3 225.7Q408.7 225.9 407.9 225.9ZM408.7 223.8L408.7 223.8Q409.4 223.8 409.9 223.6Q410.4 223.3 410.7 222.9Q411.0 222.4 411.0 221.8L411.0 221.8L411.0 220.7Q410.9 220.8 410.6 220.8Q410.4 220.9 410.1 221.0Q409.8 221.0 409.5 221.1Q409.2 221.1 408.9 221.2L408.9 221.2Q408.4 221.2 408.0 221.4Q407.6 221.6 407.4 221.9Q407.1 222.1 407.1 222.6L407.1 222.6Q407.1 223.2 407.6 223.5Q408.0 223.8 408.7 223.8ZM421.1 220.3L419.1 222.6L419.1 219.0L419.5 219.0L423.0 214.8L426.5 214.8L421.8 220.3L421.1 220.3ZM419.4 225.7L416.4 225.7L416.4 211.2L419.4 211.2L419.4 225.7ZM426.7 225.7L423.2 225.7L420.0 221.0L422.0 218.8L426.7 225.7ZM431.0 225.7L428.0 225.7L428.0 214.8L431.0 214.8L431.0 225.7ZM429.5 213.4L429.5 213.4Q428.8 213.4 428.4 213.0Q427.9 212.5 427.9 211.9L427.9 211.9Q427.9 211.2 428.4 210.8Q428.8 210.3 429.5 210.3L429.5 210.3Q430.2 210.3 430.7 210.8Q431.1 211.2 431.1 211.9L431.1 211.9Q431.1 212.5 430.7 213.0Q430.2 213.4 429.5 213.4ZM436.5 219.4L436.5 219.4L436.5 225.7L433.4 225.7L433.4 214.8L436.3 214.8L436.3 216.7L436.4 216.7Q436.8 215.8 437.7 215.2Q438.5 214.7 439.7 214.7L439.7 214.7Q440.9 214.7 441.7 215.2Q442.6 215.7 443.0 216.6Q443.5 217.5 443.5 218.8L443.5 218.8L443.5 225.7L440.5 225.7L440.5 219.3Q440.5 218.3 440.0 217.7Q439.4 217.2 438.5 217.2L438.5 217.2Q437.9 217.2 437.5 217.4Q437.0 217.7 436.7 218.2Q436.5 218.7 436.5 219.4ZM450.8 230.0L450.8 230.0Q449.3 230.0 448.3 229.6Q447.2 229.2 446.6 228.5Q446.0 227.9 445.8 227.0L445.8 227.0L448.6 226.6Q448.7 226.9 449.0 227.2Q449.3 227.5 449.7 227.7Q450.2 227.9 450.9 227.9L450.9 227.9Q451.8 227.9 452.5 227.4Q453.1 226.9 453.1 225.8L453.1 225.8L453.1 223.8L453.0 223.8Q452.8 224.2 452.4 224.6Q452.0 225.1 451.4 225.3Q450.8 225.6 449.9 225.6L449.9 225.6Q448.7 225.6 447.7 225.0Q446.7 224.4 446.1 223.2Q445.5 222.1 445.5 220.2L445.5 220.2Q445.5 218.4 446.1 217.1Q446.7 215.9 447.7 215.3Q448.7 214.7 449.9 214.7L449.9 214.7Q450.8 214.7 451.4 215.0Q452.0 215.3 452.4 215.7Q452.8 216.2 453.0 216.6L453.0 216.6L453.1 216.6L453.1 214.8L456.1 214.8L456.1 225.8Q456.1 227.2 455.4 228.2Q454.8 229.1 453.6 229.6Q452.3 230.0 450.8 230.0ZM450.8 223.3L450.8 223.3Q451.6 223.3 452.1 222.9Q452.6 222.6 452.9 221.9Q453.1 221.2 453.1 220.2L453.1 220.2Q453.1 219.3 452.9 218.6Q452.6 217.9 452.1 217.5Q451.6 217.1 450.8 217.1L450.8 217.1Q450.1 217.1 449.6 217.5Q449.1 217.9 448.8 218.6Q448.6 219.3 448.6 220.2L448.6 220.2Q448.6 221.2 448.8 221.9Q449.1 222.5 449.6 222.9Q450.1 223.3 450.8 223.3Z M466.3 225.9L466.3 225.9Q465.2 225.9 464.4 225.6Q463.6 225.2 463.1 224.5Q462.7 223.8 462.7 222.7L462.7 222.7Q462.7 221.8 463.0 221.1Q463.3 220.5 463.9 220.2Q464.5 219.8 465.2 219.6Q465.9 219.4 466.8 219.3L466.8 219.3Q467.7 219.2 468.3 219.1Q468.9 219.0 469.1 218.9Q469.4 218.7 469.4 218.3L469.4 218.3L469.4 218.3Q469.4 217.6 469.0 217.2Q468.6 216.9 467.8 216.9L467.8 216.9Q467.0 216.9 466.5 217.2Q466.0 217.6 465.8 218.1L465.8 218.1L463.0 217.9Q463.3 216.9 463.9 216.2Q464.5 215.5 465.5 215.1Q466.5 214.7 467.8 214.7L467.8 214.7Q468.7 214.7 469.5 214.9Q470.4 215.1 471.0 215.5Q471.7 216.0 472.0 216.7Q472.4 217.4 472.4 218.4L472.4 218.4L472.4 225.7L469.6 225.7L469.6 224.2L469.5 224.2Q469.2 224.7 468.8 225.1Q468.3 225.5 467.7 225.7Q467.1 225.9 466.3 225.9ZM467.1 223.8L467.1 223.8Q467.8 223.8 468.3 223.6Q468.8 223.3 469.1 222.9Q469.4 222.4 469.4 221.8L469.4 221.8L469.4 220.7Q469.3 220.8 469.0 220.8Q468.8 220.9 468.5 221.0Q468.2 221.0 467.9 221.1Q467.6 221.1 467.3 221.2L467.3 221.2Q466.8 221.2 466.4 221.4Q466.0 221.6 465.8 221.9Q465.6 222.1 465.6 222.6L465.6 222.6Q465.6 223.2 466.0 223.5Q466.5 223.8 467.1 223.8ZM477.8 229.8L474.8 229.8L474.8 214.8L477.8 214.8L477.8 216.6L477.9 216.6Q478.1 216.2 478.5 215.7Q478.9 215.3 479.5 215.0Q480.1 214.7 481.0 214.7L481.0 214.7Q482.2 214.7 483.2 215.3Q484.2 215.9 484.8 217.2Q485.4 218.4 485.4 220.3L485.4 220.3Q485.4 222.1 484.8 223.4Q484.2 224.6 483.2 225.3Q482.2 225.9 481.0 225.9L481.0 225.9Q480.1 225.9 479.5 225.6Q478.9 225.3 478.5 224.9Q478.1 224.4 477.9 224.0L477.9 224.0L477.8 224.0L477.8 229.8ZM477.7 220.3L477.7 220.3Q477.7 221.2 478.0 222.0Q478.3 222.7 478.8 223.1Q479.3 223.5 480.0 223.5L480.0 223.5Q480.8 223.5 481.3 223.1Q481.8 222.7 482.1 221.9Q482.3 221.2 482.3 220.3L482.3 220.3Q482.3 219.3 482.1 218.6Q481.8 217.9 481.3 217.5Q480.8 217.1 480.0 217.1L480.0 217.1Q479.3 217.1 478.8 217.5Q478.3 217.9 478.0 218.6Q477.7 219.3 477.7 220.3ZM490.5 229.8L487.4 229.8L487.4 214.8L490.4 214.8L490.4 216.6L490.5 216.6Q490.7 216.2 491.1 215.7Q491.5 215.3 492.1 215.0Q492.7 214.7 493.6 214.7L493.6 214.7Q494.8 214.7 495.8 215.3Q496.9 215.9 497.5 217.2Q498.1 218.4 498.1 220.3L498.1 220.3Q498.1 222.1 497.5 223.4Q496.9 224.6 495.9 225.3Q494.9 225.9 493.6 225.9L493.6 225.9Q492.8 225.9 492.1 225.6Q491.5 225.3 491.1 224.9Q490.8 224.4 490.5 224.0L490.5 224.0L490.5 224.0L490.5 229.8ZM490.4 220.3L490.4 220.3Q490.4 221.2 490.7 222.0Q490.9 222.7 491.4 223.1Q492.0 223.5 492.7 223.5L492.7 223.5Q493.4 223.5 493.9 223.1Q494.4 222.7 494.7 221.9Q495.0 221.2 495.0 220.3L495.0 220.3Q495.0 219.3 494.7 218.6Q494.5 217.9 493.9 217.5Q493.4 217.1 492.7 217.1L492.7 217.1Q491.9 217.1 491.4 217.5Q490.9 217.9 490.7 218.6Q490.4 219.3 490.4 220.3Z "/></svg>